<svg width="72" height="40" viewBox="0 0 72 40" fill="none" xmlns="http://www.w3.org/2000/svg">
<path d="M3.53744 14.3767L7.39646 14.3767L3.85902 31.6288H0L3.53744 14.3767Z" fill="#CFFF13"/>
<path d="M14.8497 14.3767L18.7087 14.3767L15.1713 31.6288H11.3123L14.8497 14.3767Z" fill="#CFFF13"/>
<path d="M7.41553 14.3767H7.50525C9.58698 14.3767 11.2745 16.0643 11.2745 18.146V31.6288H7.41553V14.3767Z" fill="#CFFF13"/>
<path d="M18.7275 14.3767H18.8173C20.899 14.3767 22.5866 16.0643 22.5866 18.146V31.6288H18.7275V14.3767Z" fill="#CFFF13"/>
<path d="M50.2619 31.6288L46.4029 31.6288L49.9403 14.3767L53.7993 14.3767L50.2619 31.6288Z" fill="#CFFF13"/>
<path d="M46.384 31.6288L46.2943 31.6288C44.2126 31.6288 42.525 29.9412 42.525 27.8595L42.525 14.3767L46.384 14.3767L46.384 31.6288Z" fill="#CFFF13"/>
<path d="M32.327 31.3112C30.688 31.3112 29.2254 30.9481 27.9392 30.222C26.6529 29.4752 25.6363 28.4586 24.8895 27.1723C24.1426 25.8861 23.7692 24.4235 23.7692 22.7846C23.7692 21.1456 24.1426 19.683 24.8895 18.3968C25.6363 17.1105 26.6529 16.1043 27.9392 15.3782C29.2254 14.6313 30.688 14.2579 32.327 14.2579C33.9452 14.2579 35.3974 14.6313 36.6836 15.3782C37.9699 16.1043 38.9761 17.1105 39.7022 18.3968C40.449 19.683 40.8225 21.1456 40.8225 22.7846C40.8225 24.4235 40.449 25.8861 39.7022 27.1723C38.9761 28.4586 37.9699 29.4752 36.6836 30.222C35.3974 30.9481 33.9452 31.3112 32.327 31.3112ZM32.327 27.9192C33.219 27.9192 34.0074 27.691 34.692 27.2346C35.3974 26.7782 35.9471 26.1662 36.3413 25.3986C36.7562 24.631 36.9533 23.7596 36.9326 22.7846C36.9533 21.7887 36.7562 20.907 36.3413 20.1394C35.9471 19.3718 35.3974 18.7702 34.692 18.3345C34.0074 17.8781 33.219 17.6499 32.327 17.6499C31.4349 17.6499 30.6258 17.8781 29.8997 18.3345C29.1943 18.7702 28.6445 19.3822 28.2504 20.1705C27.8562 20.9381 27.6591 21.8095 27.6591 22.7846C27.6591 23.7596 27.8562 24.631 28.2504 25.3986C28.6445 26.1662 29.1943 26.7782 29.8997 27.2346C30.6258 27.691 31.4349 27.9192 32.327 27.9192Z" fill="#CFFF13"/>
<path d="M62.8562 31.3112C61.1343 31.3112 59.6094 30.9481 58.2817 30.222C56.9747 29.4959 55.9478 28.5105 55.2009 27.2657C54.4748 26.0002 54.1117 24.5583 54.1117 22.9401C54.1117 21.6539 54.3192 20.4817 54.7341 19.4237C55.149 18.3656 55.7195 17.4528 56.4457 16.6852C57.1925 15.8968 58.0742 15.2952 59.0908 14.8803C60.1281 14.4446 61.2588 14.2268 62.4828 14.2268C63.5616 14.2268 64.5678 14.4342 65.5013 14.8492C66.4349 15.2641 67.244 15.8346 67.9286 16.5607C68.6132 17.2661 69.1319 18.1167 69.4846 19.1125C69.858 20.0876 70.0343 21.156 70.0136 22.3178L69.9825 23.6559H56.6946L55.9789 21.0419H66.7772L66.2793 21.5709V20.8863C66.2171 20.2432 66.0096 19.683 65.6569 19.2059C65.3042 18.7079 64.8478 18.3241 64.2877 18.0544C63.7483 17.764 63.1466 17.6188 62.4828 17.6188C61.4662 17.6188 60.6053 17.8159 59.8999 18.21C59.2153 18.6042 58.6966 19.1747 58.3439 19.9216C57.9912 20.6477 57.8149 21.5605 57.8149 22.6601C57.8149 23.7181 58.0327 24.6413 58.4684 25.4297C58.9248 26.218 59.5576 26.83 60.3667 27.2657C61.1965 27.6806 62.1612 27.8881 63.2608 27.8881C64.0284 27.8881 64.7337 27.7636 65.3769 27.5147C66.02 27.2657 66.715 26.8197 67.4618 26.1765L69.3601 28.8217C68.8 29.3403 68.1568 29.7864 67.4307 30.1598C66.7253 30.5125 65.9785 30.7925 65.1901 31C64.4018 31.2075 63.6238 31.3112 62.8562 31.3112Z" fill="#CFFF13"/>
</svg>
